<?xml version="1.0" encoding="UTF-8" standalone="no" ?>
<!DOCTYPE svg PUBLIC "-//W3C//DTD SVG 1.1//EN" "http://www.w3.org/Graphics/SVG/1.1/DTD/svg11.dtd">
<svg xmlns="http://www.w3.org/2000/svg" xmlns:xlink="http://www.w3.org/1999/xlink" version="1.1" width="1080" height="1080" viewBox="0 0 1080 1080" xml:space="preserve">
<desc>Created with Fabric.js 5.2.4</desc>
<defs>
</defs>
<g transform="matrix(1 0 0 1 540 540)" id="d017695a-c01d-4ddc-bf4a-8af2e2cad79d"  >
<rect style="stroke: none; stroke-width: 1; stroke-dasharray: none; stroke-linecap: butt; stroke-dashoffset: 0; stroke-linejoin: miter; stroke-miterlimit: 4; fill: rgb(255,255,255); fill-rule: nonzero; opacity: 1; visibility: hidden;" vector-effect="non-scaling-stroke"  x="-540" y="-540" rx="0" ry="0" width="1080" height="1080" />
</g>
<g transform="matrix(1 0 0 1 540 540)" id="84298360-0fef-4234-ac02-a3080e0f8a11"  >
</g>
<g transform="matrix(NaN NaN NaN NaN 0 0)"  >
<g style=""   >
</g>
</g>
<g transform="matrix(2.28 0 0 2.28 539.28 544.73)" id="36bdb476-8e5b-4d26-ba53-38edc8b8a30d"  >
<path style="stroke: rgb(0,0,0); stroke-width: 0; stroke-dasharray: none; stroke-linecap: butt; stroke-dashoffset: 0; stroke-linejoin: miter; stroke-miterlimit: 4; fill: rgb(103,74,74); fill-rule: nonzero; opacity: 1;" vector-effect="non-scaling-stroke"  transform=" translate(-353.78, -277.81)" d="M 428.49 468.32 C 440.955 457.531 447.107 444.578 446.951 429.476 L 446.951 428.2807 C 462.72400000000005 426.12050000000005 477.228 420.29240000000004 490.482 410.7767 L 490.607 410.6517 C 510.834 395.6947 520.748 377.6677 520.337 356.5817 C 520.317468 351.5348 519.76278 346.6129 518.6573 341.8277 C 520.4970999999999 340.6324 522.4581 339.3511 524.5245 337.9996 C 524.76669 337.78085 525.00888 337.58943999999997 525.24716 337.39412999999996 C 538.59916 328.05432999999994 545.28216 313.10912999999994 545.27016 292.54213 C 545.74282 281.07313 541.7115600000001 269.40112999999997 533.1681600000001 257.53413 C 537.2423600000001 255.18253 541.15646 252.58883 544.91416 249.74503 C 546.8633600000001 248.37783000000002 549.10166 246.61613000000003 551.62896 244.46773000000002 C 552.55084 243.67085000000003 553.39066 242.78803000000002 554.14846 241.82323000000002 C 554.32424 241.58495000000002 554.52737 241.30761 554.75393 240.98339 C 574.58993 222.83539000000002 584.30493 204.79539 583.88693 186.91739 C 584.92603 168.40539 575.37523 150.46039000000002 555.23493 133.06939 L 555.10993 132.95611 C 522.1449299999999 103.43611 480.30093 97.60111 429.56992999999994 115.45210999999999 C 428.44492999999994 114.22550999999999 427.28472999999997 112.98731 426.0933299999999 111.72940999999999 L 426.0933299999999 111.85440999999999 C 400.2963299999999 84.94440999999999 371.91732999999994 71.62741 340.96032999999994 71.92040999999999 C 319.10132999999996 71.33057 294.23732999999993 82.35440999999999 266.3823299999999 105.01840999999999 L 266.2573299999999 105.14340999999999 C 249.7493299999999 117.89340999999999 235.92532999999992 137.62741 224.7733299999999 164.37340999999998 C 218.0467299999999 160.78360999999998 211.2963299999999 159.14681 204.5073299999999 159.45931 C 179.7103299999999 158.48274999999998 159.8863299999999 173.14330999999999 145.0303299999999 203.47131 L 145.1553299999999 203.34631 C 134.7103299999999 224.15831 127.9133299999999 247.06530999999998 124.7763299999999 272.05331 L 124.7763299999999 272.16659 C 121.7411299999999 297.57259 124.53413999999991 323.15058999999997 133.1708299999999 348.90459 L 133.2958299999999 349.02959 C 142.2802299999999 377.09159 163.9088299999999 392.62759 198.16282999999993 395.67059 C 201.66672999999992 402.54559 206.22532999999993 409.74459 211.83482999999993 417.25659 L 211.95201999999992 417.38159 C 231.2530199999999 444.91659000000004 263.70201999999995 454.86959 309.3110199999999 447.23659000000004 C 312.65081999999995 451.03739 316.49071999999995 454.87719000000004 320.82701999999995 458.75259000000005 L 320.82701999999995 458.87759000000005 C 339.86202 475.95159000000007 359.63901999999996 484.22159000000005 380.18201999999997 483.69759000000005 L 380.42029999999994 483.69759000000005 C 401.44329999999997 483.28743000000003 417.39329999999995 478.24839000000003 428.26429999999993 468.58459000000005 C 428.3150809999999 468.46740000000005 428.40101999999996 468.39318000000003 428.48695999999995 468.31897000000004 z M 384.486 339.78 C 384.72427999999996 339.91672 384.95866 340.07687999999996 385.20083999999997 340.26047 C 386.80634 341.21359 388.40394 342.18237 389.99773999999996 343.13547 C 401.94273999999996 350.32687 414.53274 355.40547 427.75973999999997 358.36247 C 437.40423999999996 360.53436999999997 447.31474 361.60857 457.49373999999995 361.59686999999997 C 467.84873999999996 361.58905799999997 477.75973999999997 360.19066999999995 487.2277399999999 357.40157 C 486.54414999999995 367.57357 481.14183999999995 376.40957 471.03673999999995 383.90157 L 470.91173999999995 384.02657 C 459.59574 392.10857 446.8887399999999 396.14757 432.78273999999993 396.13557 C 416.05573999999996 396.127757 400.46673999999996 391.72537 386.0167399999999 382.95156999999995 L 386.1417399999999 383.0648499999999 C 371.45073999999994 373.9242499999999 363.89573999999993 362.13884999999993 363.4817399999999 347.6898499999999 C 363.4739269999999 341.8968499999999 365.3098399999999 337.5848499999999 368.9934399999999 334.74884999999995 L 369.2356299999999 334.74884999999995 C 370.8489299999999 333.71764999999994 372.6458299999999 332.9090499999999 374.6301299999999 332.3465499999999 C 377.6418299999999 334.90514999999994 380.9270299999999 337.38564999999994 384.4856299999999 339.78014999999994 z M 430.525 269.042 C 431.18906 269.24122 431.8336 269.39747 432.44689999999997 269.52247 C 434.20079999999996 269.83888 435.9625 270.15528 437.7242 270.47559 L 436.88436 270.23731000000004 C 449.97436 273.35451000000006 463.17336 274.47561 476.45036000000005 273.59281000000004 L 476.56755000000004 273.59281000000004 C 484.52065000000005 273.13187000000005 492.47755000000006 271.97951000000006 500.43455000000006 270.11621 C 507.68845000000005 277.93651 511.60255000000006 285.40921000000003 512.1885500000001 292.53421000000003 C 512.1768320000001 300.35061 510.1416500000001 306.29621000000003 506.07135000000005 310.40521 L 505.70416000000006 310.76459 C 505.57916000000006 310.838809 505.4658800000001 310.92084 505.34478000000007 311.00678 C 503.1220800000001 312.43648 501.0439800000001 313.84268 499.1103800000001 315.20598 L 498.9931900000001 315.20598 C 496.7978900000001 316.76068000000004 494.7548900000001 318.16688 492.87599000000006 319.40128 C 492.68458000000004 319.49893599999996 492.48537000000005 319.62003 492.27833000000004 319.76066 C 491.33692 320.12784999999997 490.41893000000005 320.60832 489.52053000000006 321.19816 C 488.87209000000007 321.39738 488.23143000000005 321.62784999999997 487.59863000000007 321.91299999999995 C 478.2783300000001 326.32319999999993 468.2466300000001 328.52629999999994 457.50063000000006 328.50679999999994 C 449.78583000000003 328.49508199999997 442.27063000000004 327.65523999999994 434.95763000000005 325.99899999999997 C 425.17643000000004 323.83489999999995 415.85963000000004 320.1201 407.01963000000006 314.84299999999996 C 405.4258300000001 313.88597 403.8282300000001 312.92109999999997 402.22273000000007 311.9602 C 397.9649300000001 308.9797 394.37113000000005 305.78049999999996 391.4337300000001 302.37039999999996 L 391.4337300000001 302.49539999999996 C 385.4493300000001 295.37039999999996 382.4532300000001 287.26539999999994 382.44153000000006 278.14739999999995 C 382.44934300000006 271.9950999999999 384.52743000000004 267.44039999999995 388.6837300000001 264.48339999999996 L 388.6837300000001 264.35839999999996 C 394.0353300000001 261.3857 400.9957300000001 259.90919999999994 409.5467300000001 259.92869999999994 C 415.5662300000001 263.53419999999994 422.5587300000001 266.56539999999995 430.52373000000006 269.0419999999999 z M 533.415 158.01199999999997 L 533.53219 158.13699999999997 C 544.5011900000001 167.58229999999998 550.25919 177.01599999999996 550.79819 186.42199999999997 C 549.90757 196.28529999999998 543.55599 206.55099999999996 531.73219 217.24199999999996 C 531.18922 217.76543999999996 530.67359 218.33179999999996 530.1774899999999 218.92169999999996 C 529.7556099999999 219.43731999999997 529.3493699999999 219.91778999999997 528.98219 220.36699999999996 C 527.88839 221.24980999999997 526.89239 222.00369999999995 525.9899899999999 222.64429999999996 C 525.79077 222.81226999999996 525.5915499999999 222.97241999999997 525.38452 223.12476999999996 C 519.1423199999999 227.92166999999995 512.2325199999999 231.76146999999995 504.63851999999997 234.64076999999995 C 502.13072 235.36732999999995 499.57212 236.08996999999994 496.96662 236.79306999999994 C 489.49392 238.86336999999995 482.02162 240.09776999999994 474.54062 240.51576999999995 L 474.42343 240.51576999999995 C 464.40043 241.22670999999994 454.44343 240.42201999999995 444.56443 238.11346999999995 C 444.28318 238.03143899999995 443.99802 237.95721999999995 443.72459000000003 237.87518999999995 C 442.27929000000006 237.60956999999993 440.83789 237.33221999999995 439.40819000000005 237.03534999999994 C 437.97849 236.57440999999994 436.57229000000007 236.10175999999993 435.2128900000001 235.59004999999993 C 440.7245900000001 232.55484999999993 445.5178900000001 228.35954999999993 449.5998900000001 223.00404999999992 C 449.6702030000001 222.87904999999992 449.74442000000005 222.76185999999993 449.8498900000001 222.64857999999992 C 455.1623900000001 215.56657999999993 458.60379000000006 207.0505799999999 460.1548900000001 197.11357999999993 C 463.4478900000001 198.48077999999992 468.2446900000001 200.55887999999993 474.5458900000001 203.34017999999992 C 478.7646900000001 205.21127999999993 482.9950900000001 205.33237999999992 487.2568900000001 203.7073699999999 C 491.4873900000001 202.0471699999999 494.5224900000001 199.13316999999992 496.3662900000001 194.94566999999992 C 498.2451900000001 190.73866999999993 498.3623900000001 186.50816999999992 496.7334800000001 182.2346699999999 C 495.0654800000001 178.00806999999992 492.1553800000001 174.97296999999992 487.9795800000001 173.13306999999992 C 473.3625800000001 166.6447699999999 464.52658000000014 163.20336999999992 461.4795800000001 162.81706999999992 C 460.9639600000001 162.75456999999992 460.4404800000001 162.71941399999992 459.9248800000001 162.69206999999992 C 459.3037900000001 162.63738299999991 458.7060800000001 162.59831999999992 458.1279800000001 162.56706999999992 C 458.0420420000001 162.28190999999993 457.9678200000001 161.99284999999992 457.8857900000001 161.7350399999999 C 457.8467280000001 161.5475399999999 457.8037590000001 161.34831999999992 457.7607900000001 161.13737999999992 C 455.9951900000001 155.4264799999999 453.4716900000001 149.66837999999993 450.2060900000001 143.86437999999993 C 483.33909000000006 134.62997999999993 511.0730900000001 139.34097999999992 533.41709 158.01237999999992 z M 238.45499999999998 397.572 L 238.32999999999998 397.447 C 225.79899999999998 380.537 221.486 366.951 225.37699999999998 356.677 C 227.5254 352.634 227.9278 348.4309 226.57619999999997 344.091 C 225.24419999999998 339.716 222.56839999999997 336.4426 218.54499999999996 334.2668 C 214.51379999999995 332.1184 210.31449999999995 331.7238 205.95899999999995 333.0715 C 201.59179999999995 334.4074 198.31059999999994 337.091 196.12699999999995 341.09880000000004 C 192.40429999999995 347.08320000000003 190.24809999999997 353.55580000000003 189.65429999999995 360.5248 C 177.31429999999995 356.8607 168.92029999999994 349.43480000000005 164.47429999999994 338.2158 L 164.59148999999994 338.3408 C 157.57198999999994 317.4578 155.25948999999994 296.7198 157.63448999999994 276.1178 L 157.63448999999994 275.9928 C 160.26728999999995 254.9808 165.94698999999994 235.7158 174.66548999999995 218.1958 L 174.78267999999994 218.08252 C 182.64597999999995 202.01252 192.55267999999995 193.49251999999998 204.51667999999995 192.53951999999998 C 207.44247999999996 192.93014 210.43467999999996 194.28951999999998 213.50887999999995 196.61371999999997 C 211.08307999999994 205.02781999999996 208.84087999999994 213.89072 206.79407999999995 223.23071999999996 C 205.83704999999995 227.67991999999995 206.59485999999995 231.84401999999997 209.07137999999995 235.69971999999996 C 211.52447999999995 239.58251999999996 214.95807999999994 242.01611999999994 219.38037999999995 243.01611999999994 C 223.83737999999994 243.98095999999995 227.99367999999996 243.22314999999995 231.84937999999994 240.73881999999995 C 235.72047999999995 238.28181999999995 238.15797999999995 234.85991999999996 239.16187999999994 230.42281999999994 C 249.76387999999994 181.99681999999996 265.7128799999999 148.82481999999993 287.00587999999993 130.90281999999996 L 287.13087999999993 130.77781999999996 C 307.5018799999999 114.18781999999996 325.45487999999995 105.58981999999996 340.96687999999995 105.00081999999996 C 363.09187999999995 105.33675999999996 383.47087999999997 115.24681999999996 402.11887999999993 134.74281999999997 C 405.3922799999999 138.14121999999998 408.36107999999996 141.54361999999998 410.98997999999995 144.93381999999997 C 411.0720109999999 145.04709999999997 411.14622999999995 145.17209999999997 411.2282599999999 145.28928999999997 C 411.5641999999999 145.75412999999998 411.91966999999994 146.19944999999996 412.3102599999999 146.60958999999997 C 418.8883599999999 154.99238999999997 423.4782599999999 163.19158999999996 426.0992599999999 171.18758999999997 L 425.9742599999999 170.58992999999998 C 426.7594199999999 173.35942999999997 427.3609599999999 176.11333 427.7711599999999 178.85942999999997 C 427.75944099999987 179.07817999999997 427.75944099999987 179.26958999999997 427.7711599999999 179.46489999999997 C 427.9078799999999 180.96489999999997 427.9938199999999 182.51959999999997 428.0133499999999 184.13679999999997 C 428.0055379999999 191.82819999999995 426.3258499999999 198.18779999999995 422.97424999999987 203.19579999999996 L 423.21252999999984 202.95751999999996 C 420.3258299999998 206.75441999999995 416.25162999999986 208.55131999999995 410.98552999999987 208.35201999999995 C 408.57932999999986 208.38326999999995 406.25502999999986 208.09810999999996 404.0285299999999 207.51217999999994 L 403.6691499999999 207.38717999999994 L 403.5441499999999 207.38717999999994 C 398.6027499999999 205.70747999999995 393.96994999999987 202.66447999999994 389.6381499999999 198.28557999999995 L 389.5209599999999 198.28557999999995 C 378.8689599999999 187.73857999999996 371.1149599999999 180.18057999999996 366.25495999999987 175.61357999999996 C 365.5830799999999 174.03937999999997 364.61825999999985 172.57057999999995 363.37995999999987 171.18387999999996 C 360.5440599999999 168.03547999999995 357.02835999999985 166.23857999999996 352.82495999999986 165.78937999999997 C 348.6061599999999 165.32453999999996 344.7741599999999 166.31281999999996 341.31295999999986 168.78937999999997 C 337.88325999999984 171.29717999999997 335.7270599999999 174.62137999999996 334.83635999999984 178.73857999999996 C 333.10585999999984 184.64877999999996 334.02776999999986 192.67657999999994 337.5941599999998 202.84357999999995 L 337.7191599999998 203.08576999999994 C 339.48085999999984 207.89046999999994 340.4769599999998 211.40606999999994 340.7191599999998 213.63276999999994 C 340.4027499999998 223.93776999999994 336.1761599999998 234.60976999999994 328.0081599999998 245.65276999999995 L 327.8831599999998 245.76604999999995 C 320.18785999999983 255.87104999999994 312.2271599999998 261.75804999999997 304.0201599999998 263.39504999999997 C 299.5201599999998 264.00052 295.88735999999983 266.12165 293.1061599999998 269.74665 C 290.3014599999998 273.37944999999996 289.1725599999998 277.45754999999997 289.7506599999998 281.98064999999997 C 290.35612999999984 286.48064999999997 292.4694599999998 290.11344999999994 296.10225999999983 292.89464999999996 C 299.7350599999998 295.69544999999994 303.8131599999998 296.82044999999994 308.34025999999983 296.25014999999996 C 322.92625999999984 294.88294999999994 336.70725999999985 286.61344999999994 349.70725999999985 271.43814999999995 C 349.46506999999986 273.60224999999997 349.34006999999986 275.83654999999993 349.34006999999986 278.14514999999994 C 349.34006999999986 287.6529499999999 351.05096999999984 296.56314999999995 354.50026999999983 304.88714999999996 C 353.3166699999998 305.55902999999995 352.1604699999998 306.28554999999994 351.01586999999984 307.04734999999994 C 337.26986999999986 315.41454999999996 330.40286999999984 328.95734999999996 330.39486999999986 347.6923499999999 C 330.37143299999985 349.5204499999999 330.4065889999999 351.3212499999999 330.51986999999986 353.0868499999999 C 319.99686999999983 354.5126499999999 311.0428699999999 359.86414999999994 303.66486999999984 369.1568499999999 L 303.54767999999984 369.2740399999999 C 295.71567999999985 378.6998399999999 291.80167999999986 390.6020399999999 291.7936799999998 405.0080399999999 C 291.7389929999998 408.60573999999986 292.0983699999998 412.19943999999987 292.87177999999983 415.79703999999987 C 268.35177999999985 417.71893999999986 250.19977999999983 411.64083999999986 238.45377999999982 397.5700399999999 z M 379.695 450.572 C 367.062 450.29856 354.793 444.8181 342.879 434.138 L 342.879 434.263 C 337.6134 429.45829999999995 333.422 424.73569999999995 330.293 420.118 L 330.05472000000003 419.75081 C 329.84769000000006 419.44612 329.64847000000003 419.16487 329.44925 418.91097 C 326.55475 414.23907 325.03905000000003 409.60237 324.89455 405.00497 C 324.886737 399.01277 326.36334999999997 394.00497 329.33594999999997 390.02097000000003 L 329.45313999999996 389.89597000000003 C 331.46873999999997 387.33737 333.95313999999996 385.97407000000004 336.89063999999996 385.82177 C 337.63672999999994 385.810051 338.24224 385.810051 338.68753999999996 385.82177 C 338.95315999999997 385.92724000000004 339.23441999999994 386.04443000000003 339.52737999999994 386.17724000000004 C 340.46878999999996 386.65771000000007 341.42967999999996 387.05615000000006 342.4101799999999 387.37644000000006 C 348.6757799999999 396.2162400000001 357.4301799999999 404.13444000000004 368.6681799999999 411.1184400000001 L 368.7931799999999 411.23172000000005 C 382.6371799999999 419.63792000000007 397.2661799999999 425.11472000000003 412.6801799999999 427.6657200000001 C 413.0590899999999 428.2321300000001 413.5004899999999 428.7868200000001 414.00047999999987 429.3454200000001 L 413.8832899999999 429.4704200000001 C 413.7270399999999 434.7282200000001 411.4887899999999 439.27512000000013 407.1644899999999 443.1344200000001 C 400.8167899999999 447.8336200000001 391.7464899999999 450.3102200000001 379.9494899999999 450.5758200000001 L 379.6955799999999 450.57972600000005 z" stroke-linecap="round" />
</g>
<g transform="matrix(NaN NaN NaN NaN 0 0)"  >
<g style=""   >
</g>
</g>
<g transform="matrix(NaN NaN NaN NaN 0 0)"  >
<g style=""   >
</g>
</g>
<g transform="matrix(NaN NaN NaN NaN 0 0)"  >
<g style=""   >
</g>
</g>
</svg>