<?xml version="1.0" encoding="UTF-8" standalone="no" ?>
<!DOCTYPE svg PUBLIC "-//W3C//DTD SVG 1.1//EN" "http://www.w3.org/Graphics/SVG/1.1/DTD/svg11.dtd">
<svg xmlns="http://www.w3.org/2000/svg" xmlns:xlink="http://www.w3.org/1999/xlink" version="1.1" width="640" height="480" viewBox="0 0 640 480" xml:space="preserve">
<desc>Created with Fabric.js 3.6.6</desc>
<defs>
</defs>
<g transform="matrix(1.17 0 0 1.17 316.59 244.64)"  >
<path style="stroke: none; stroke-width: 1; stroke-dasharray: none; stroke-linecap: butt; stroke-dashoffset: 0; stroke-linejoin: miter; stroke-miterlimit: 4; fill: rgb(255,255,255); fill-rule: nonzero; opacity: 1;"  transform=" translate(-357.92, -271.4)" d="m 107.28 331.05 c 8.2266 25.684 28.91 39.059 62.066 40.109 c 1.0469 0.039062 2.0664 -0.03125 3.0508 -0.20703 c 2.8438 4.3125 6.2109 8.4609 10.109 12.465 c 14.559 15.062 31.672 22.551 51.348 22.449 c 1.9922 0.042969 5.1641 -0.29688 9.4883 -1.0156 c 2.1914 -0.35547 3.5859 -0.55859 4.1953 -0.61719 h 1.1211 c 3.5078 6.5469 8.4453 13.105 14.801 19.699 l 0.097657 0.097656 c 15.301 15.949 31.938 23.77 49.922 23.477 c 15.699 -0.070312 29.445 -4.4492 41.234 -13.168 c 13.562 -9.9727 20.098 -21.574 19.605 -34.809 v -0.71484 c 17.172 -0.57422 32.82 -5.1641 46.961 -13.777 l 0.10547 -0.11328 c 18.898 -11.852 28.055 -26.312 27.457 -43.383 c 0.11328 -5.8906 -0.83984 -11.566 -2.8633 -17.055 c 16.789 3.1484 33.938 5.8633 51.453 8.168 c 36.188 4.7461 60.762 6.1055 73.703 4.082 c 0.070313 -0.039063 0.13672 -0.074219 0.20703 -0.10547 c 16.789 -2.6016 29.688 -11.961 38.691 -28.07 l -0.10547 0.097656 c 9.4961 -15.867 9.2969 -33.793 -0.61719 -53.797 c -8.0078 -19.68 -33.938 -31.148 -77.785 -34.395 c -0.51172 -0.042969 -1.0273 -0.074219 -1.5312 -0.10547 c 30.637 -9.4531 49.285 -21.336 55.938 -35.621 l 0.10547 -0.10547 c 10.703 -19.906 12.16 -35.934 4.3945 -48.074 c -6.3281 -11.754 -15.816 -19.844 -28.48 -24.297 h 0.19922 c -10.781 -4.0195 -23.059 -5.7852 -36.855 -5.3086 h -0.20703 c -12.523 0.11328 -37.57 6.6133 -75.121 19.488 c -29.406 10.066 -53.805 19.867 -73.199 29.406 c -4.8359 -8.6797 -11.578 -17.516 -20.211 -26.539 c -21.957 -22.93 -46.117 -34.246 -72.477 -34 c -18.641 -0.49219 -39.836 8.8711 -63.598 28.074 c -14.074 10.926 -25.836 27.762 -35.328 50.523 c -5.7227 -2.9805 -11.473 -4.3438 -17.242 -4.082 c -21.074 -0.80859 -38.023 11.672 -50.836 37.465 c -8.7109 17.691 -14.398 37.16 -17.051 58.395 c -2.7188 21.727 -0.30469 43.504 7.2539 65.363 z m 206.5 54.195 h 0.11328 c 9.5391 4.9961 19.543 8.6289 30.004 10.934 c 0.57422 1.168 1.3125 2.3008 2.2461 3.3672 c -0.48438 4.4492 -3.2109 8.4922 -8.168 12.152 c -7 5.1602 -15.156 7.7031 -24.504 7.6523 c -10.559 -0.29297 -20.426 -5.2266 -29.605 -14.809 l -0.097657 -0.09375 c -8.4805 -8.793 -12.941 -17.367 -13.379 -25.734 c 0 -5.0156 1.25 -9.2656 3.7773 -12.762 l 0.097656 -0.097657 c 1.7227 -2.0781 3.8281 -3.1602 6.3359 -3.2617 c 1.168 -0.007813 1.9492 -0.007813 2.3477 0 c 0.125 0.023437 0.21875 0.0625 0.31641 0.10547 h -0.41016 c 1.5938 0.78516 3.1992 1.2617 4.7969 1.4258 c 5.8945 7.9883 14.605 15.023 26.129 21.121 z m -171.39 -165.46 c 6.793 -13.715 15.301 -20.961 25.523 -21.754 c 2.4883 0.33594 5.0469 1.4922 7.6523 3.4727 c -2.0664 7.1562 -3.9766 14.715 -5.7227 22.668 c -0.81641 3.7812 -0.16797 7.3242 1.9492 10.613 c 2.0898 3.2969 5.0195 5.375 8.7734 6.2266 c 3.7891 0.82031 7.3438 0.17578 10.621 -1.9336 c 3.293 -2.0898 5.3711 -5.0195 6.2344 -8.7852 c 9.0391 -41.285 22.656 -69.625 40.824 -85.027 c 17.355 -14.012 32.629 -21.262 45.84 -21.754 c 18.82 0.28516 36.176 8.7227 52.062 25.316 v -0.10547 c 10.074 10.535 16.844 20.715 20.309 30.52 c 0.039063 0.10547 0.074219 0.20703 0.11328 0.30469 c 1.0586 3.7812 1.6172 7.5586 1.6289 11.332 c 0 6.4844 -1.3984 11.785 -4.1797 15.93 c -2.4453 3.1602 -5.8906 4.6602 -10.316 4.4844 c -6.6719 -0.16797 -12.762 -2.9609 -18.27 -8.3633 c -8.9648 -8.8867 -15.531 -15.281 -19.699 -19.195 c -0.55859 -1.4453 -1.4258 -2.8125 -2.5508 -4.0898 c -2.4219 -2.6836 -5.418 -4.207 -8.9805 -4.5938 c -3.5977 -0.39844 -6.8711 0.45312 -9.8047 2.5508 c -2.918 2.1406 -4.7539 4.9648 -5.5078 8.4766 c -1.4922 4.9727 -0.74219 11.848 2.2344 20.613 c 0.085938 0.09375 0.14453 0.19922 0.20703 0.3125 c 1.5039 4.0938 2.3594 7.0859 2.5508 8.9805 c -0.25391 8.7734 -3.9258 17.859 -11.02 27.258 c -6.5273 8.5977 -13.336 13.625 -20.414 15.109 c -3.8008 0.55859 -6.875 2.3945 -9.1914 5.5117 c -2.3711 3.1406 -3.2773 6.6523 -2.7578 10.516 c 0.55859 3.8008 2.3945 6.8711 5.5195 9.1914 c 3.1484 2.3594 6.6445 3.2773 10.508 2.75 c 13.875 -1.5117 26.812 -10.23 38.789 -26.133 c 8.3359 -11.02 13.578 -21.848 15.711 -32.461 c 9.9297 7.9688 20.82 11.883 32.668 11.742 c 14.039 -0.13672 24.996 -5.375 32.871 -15.719 l 0.11328 -0.20703 c 6.457 -8.375 9.6992 -19.27 9.6992 -32.668 c 0.007813 -2.6445 -0.12891 -5.3008 -0.40625 -7.957 c 18.941 -9.5938 43.336 -19.496 73.191 -29.703 c 33.555 -11.543 55.809 -17.566 66.758 -18.074 h 0.19922 c 9.8203 -0.32422 18.562 0.90234 26.238 3.6758 h 0.20703 c 5.8359 2.0781 10.234 5.832 13.16 11.23 c 1.7852 5.2383 0.25 12.344 -4.5859 21.336 l 0.10547 -0.09375 c -7.2734 10.934 -27.621 20.254 -61.047 27.961 l 0.10547 -0.097656 c -39.461 8.9414 -76.652 18.836 -111.58 29.703 c -3.4766 1.0938 -6.1289 3.2422 -7.957 6.4258 c -1.8672 3.1875 -2.4062 6.5586 -1.6367 10.105 c 0.83203 3.5586 2.7695 6.3789 5.832 8.4805 c 2.9922 2.1211 6.2969 2.9375 9.8984 2.4453 c 53.934 -7.5898 98.82 -10.137 134.64 -7.6523 c 29.719 2.1953 47.887 8.4258 54.52 18.68 c 5.0586 10.23 5.543 19.363 1.4258 27.465 l -0.10547 0.097657 c -4.332 7.8516 -10.496 12.512 -18.473 13.988 l 0.19922 -0.11328 c -11.547 1.5195 -33.539 0.15625 -65.941 -4.0742 c -33.465 -4.3984 -65.582 -10.309 -96.355 -17.758 c -2.8633 -0.94141 -5.8555 -1.6562 -8.9922 -2.1484 c -0.25391 -0.042969 -0.48438 -0.074219 -0.70312 -0.10547 c -1.2578 -0.12891 -2.5898 -0.27344 -3.9883 -0.40625 c -3.8594 -0.40625 -7.3047 0.61719 -10.309 3.0625 c -3.0039 2.4648 -4.7148 5.6367 -5.0977 9.4961 c -0.40625 3.8516 0.61719 7.293 3.0547 10.297 c 2.4766 3.0195 5.6445 4.7148 9.4961 5.1094 c 1.0625 0.11328 2.0859 0.21875 3.0625 0.3125 c 0.23828 0.042968 0.47266 0.074218 0.71484 0.10547 c 1.1328 0.21875 2.2539 0.48438 3.3672 0.81641 c 0.3125 0.13672 0.64844 0.27344 1.0195 0.40625 c 5.0391 1.75 9.832 4.6484 14.391 8.6797 l 0.10547 0.10547 c 6.2539 5.75 9.5156 12.047 9.8008 18.883 c -0.58984 7.4219 -5.3125 13.918 -14.191 19.5 l 0.11328 -0.10547 c -10.734 6.5625 -22.703 9.8242 -35.934 9.8008 c -15.75 0.03125 -30.32 -3.4414 -43.688 -10.414 h 0.097656 c -12.855 -6.8008 -19.625 -15.383 -20.309 -25.723 c -0.11328 -3.8945 1.4688 -6.7188 4.6914 -8.4805 l -0.097656 0.11328 c 4.7305 -2.3164 10.891 -3.4727 18.473 -3.4727 c 2.625 0.31641 8.1445 2.0859 16.539 5.3086 c 0.097656 0.039063 0.19141 0.082031 0.30469 0.097657 c 8.1562 3.3555 13.09 5.5625 14.801 6.6328 c 2.957 2.5703 6.3516 3.7266 10.211 3.4727 c 3.8594 -0.29297 7.0547 -1.9297 9.5938 -4.8906 c 2.5742 -2.9492 3.7266 -6.3516 3.4766 -10.211 c -0.3125 -3.8516 -1.9492 -7.0508 -4.9023 -9.5938 c -2.3398 -2.4531 -9.9688 -6.3281 -22.871 -11.637 c -0.11328 -0.03125 -0.20703 -0.0625 -0.30469 -0.10547 c -13.488 -5.1719 -22.43 -7.5781 -26.844 -7.25 c -13.098 -0.011718 -23.688 2.2344 -31.746 6.7383 l -0.11328 0.10547 c -12.785 6.918 -19.238 17.914 -19.395 32.965 c -10.414 0.45312 -19.164 5.0586 -26.227 13.781 l -0.11328 0.11328 c -6.2578 7.7031 -9.5898 17.129 -10 28.266 c -1.0078 0.12891 -2.1641 0.30469 -3.4766 0.51172 h -0.097656 c -2.2031 0.375 -3.8008 0.57812 -4.7969 0.61719 c -11.898 -0.09375 -22.277 -4.7227 -31.137 -13.875 c -8.5547 -8.7617 -13.148 -18.699 -13.77 -29.805 c -0.19141 -3.8945 -1.7227 -7.1484 -4.6055 -9.8008 c -2.8672 -2.6367 -6.2461 -3.8594 -10.098 -3.6758 c -3.8906 0.17969 -7.1562 1.7109 -9.793 4.5859 s -3.8633 6.2422 -3.6836 10.105 c 0.097656 2.3594 0.30469 4.6719 0.60937 6.9492 c -13.887 -2.2656 -23.078 -9.0391 -27.551 -20.316 c -6.0664 -17.629 -7.9961 -35.176 -5.8359 -52.672 c 2.2227 -17.969 7.0195 -34.438 14.363 -49.41 z" stroke-linecap="round" />
</g>
</svg>