<?xml version="1.0" encoding="UTF-8" standalone="no" ?>
<!DOCTYPE svg PUBLIC "-//W3C//DTD SVG 1.1//EN" "http://www.w3.org/Graphics/SVG/1.1/DTD/svg11.dtd">
<svg xmlns="http://www.w3.org/2000/svg" xmlns:xlink="http://www.w3.org/1999/xlink" version="1.1" width="640" height="480" viewBox="0 0 640 480" xml:space="preserve">
<desc>Created with Fabric.js 3.6.6</desc>
<defs>
</defs>
<g transform="matrix(1.17 0 0 1.17 323.9 239.19)"  >
<path style="stroke: none; stroke-width: 1; stroke-dasharray: none; stroke-linecap: butt; stroke-dashoffset: 0; stroke-linejoin: miter; stroke-miterlimit: 4; fill: rgb(0,0,0); fill-rule: nonzero; opacity: 1;"  transform=" translate(-356.21, -271.01)" d="m 505.38 427.44 c 1.1445 -6.6562 1.0078 -12.918 -0.39062 -18.805 c 8.7305 -0.24219 17.484 -0.64844 26.234 -1.2461 h 0.09375 c 12.949 -1.0938 23.684 -6.4258 32.199 -16.004 c 8.8047 -9.8633 12.754 -21.328 11.859 -34.422 c -0.69141 -10.328 -4.2617 -19.32 -10.703 -27 c 4.8906 -0.67188 8.1992 -1.3555 9.9297 -2.0234 l 0.19141 -0.09375 c 13.652 -5.0898 24.098 -13.895 31.328 -26.414 l 0.097656 -0.09375 c 7.9531 -13.551 8.4922 -28.23 1.6445 -44.066 v 0.10547 c -6.3906 -16.102 -20.242 -25.871 -41.559 -29.309 h 0.19141 c -3.1094 -0.59766 -6.5508 -1.0391 -10.309 -1.3555 c 0.91016 -1.4258 1.7422 -2.9414 2.5 -4.5352 l 0.097656 -0.19141 c 5.2891 -11.66 5.8906 -23.582 1.8359 -35.766 c -0.039062 -0.074218 -0.070312 -0.17578 -0.10547 -0.28516 c -4.4102 -12.145 -12.188 -21.117 -23.328 -26.898 h 0.097656 c -9.7109 -5.5195 -23.301 -7.4805 -40.781 -5.8789 l 0.007813 -0.09375 c -12.691 1.0312 -65.297 12.562 -157.82 34.609 c 0.26172 -0.44922 0.51563 -0.90234 0.77344 -1.3516 v 0.097656 c 6.6719 -11.305 11.777 -23.738 15.324 -37.316 l -0.09375 0.097656 c 4.2266 -15.152 2.7383 -31.316 -4.4375 -48.484 c -8.3359 -20.379 -23.949 -29.125 -46.859 -26.227 h -0.09375 c -22.062 2.1719 -36.324 16.793 -42.801 43.867 c -4.0742 17.262 -8.125 28.695 -12.152 34.32 l -0.085938 0.097656 c -4.4609 5.0664 -11.762 10.465 -21.891 16.195 c -0.0625 0.023438 -0.12891 0.054688 -0.19141 0.09375 c -14.492 7.9023 -25.773 19.922 -33.836 36.059 v -0.097656 c -2.4453 4.7617 -4.5977 9.6367 -6.4648 14.652 c -8.0312 -5.207 -15.039 -7.5586 -21.012 -7.0312 c -19.938 -0.78906 -35.883 11.008 -47.816 35.379 l 0.09375 -0.097656 c -8.4062 16.602 -13.871 35.012 -16.391 55.246 v 0.097657 c -2.4531 20.426 -0.19922 40.93 6.7461 61.508 l 0.09375 0.097656 c 7.7773 24.254 27.316 36.891 58.613 37.887 c 1.6602 0.054687 3.2031 -0.16797 4.6289 -0.66406 c 26.539 46.691 79.695 60.027 159.45 40.008 c 40.184 13.078 81.609 21.66 124.28 25.734 h 0.09375 c 12.078 1.1562 23.07 -2.2148 32.973 -10.125 c 9.918 -7.9688 15.828 -18.051 17.746 -30.277 z m -170.26 -11.859 c -2.5273 -0.82812 -5.0664 -0.88281 -7.6172 -0.19141 c -78.383 20.52 -126.16 3.5547 -143.36 -50.902 c -1.0391 -3.5039 -3.1484 -6.1367 -6.3672 -7.9023 c -3.2305 -1.7539 -6.6094 -2.1094 -10.117 -1.0703 c -3.5078 1.0312 -6.1484 3.1484 -7.9102 6.3672 c -1.7617 3.2305 -2.1094 6.6016 -1.0625 10.117 c 0.32812 1.1953 0.68359 2.3828 1.0625 3.5703 c -13.727 -1.9961 -22.754 -8.4492 -27.09 -19.375 l 0.097657 0.097657 c -5.6445 -16.676 -7.5117 -33.297 -5.5938 -49.852 c 2.1016 -17.035 6.6719 -32.562 13.688 -46.547 l 0.097656 -0.10547 c 6.3203 -12.918 14.285 -19.77 23.91 -20.539 c 3.4219 0.66016 7.9844 3.3594 13.688 8.1094 c -0.34375 1.9531 -0.62109 3.9141 -0.87109 5.875 c -0.45313 3.6406 0.44922 6.9062 2.6992 9.832 c 2.2695 2.8945 5.2266 4.5664 8.8672 5.0195 c 3.6406 0.45312 6.9258 -0.44141 9.8359 -2.707 c 2.8867 -2.2656 4.5625 -5.2188 5.0156 -8.8672 c 1.7305 -14.098 5.7109 -27.211 11.953 -39.336 v -0.097656 c 5.5195 -11.043 13.203 -19.309 23.039 -24.77 l 0.19141 -0.097656 c 13.863 -7.8203 23.695 -15.352 29.5 -22.555 l 0.097656 -0.097656 c 6.2227 -7.0195 12.039 -22.031 17.453 -45.023 c 3.2852 -13.777 10.066 -21.652 20.34 -23.621 h 0.097656 c 9.1797 -1.1836 15.504 2.1602 18.988 10.031 c 4.6406 11.102 5.7383 21.547 3.2734 31.336 l -0.097656 0.09375 c -2.875 11.113 -7.0195 21.297 -12.438 30.562 v 0.097656 c -6.6562 11.406 -10.738 21.496 -12.238 30.27 c -0.082031 0.26172 -0.14453 0.51562 -0.19141 0.77344 c -0.085937 0.49609 -0.15625 1.0195 -0.19141 1.543 c -0.29688 4.2422 -0.16797 12.184 0.38672 23.824 v 0.1875 c 0.34375 9.1484 -2.4883 20.613 -8.4805 34.414 h -0.09375 c -6.0977 13.496 -17.766 24.461 -35 32.871 c -3.2852 1.625 -5.5391 4.1484 -6.7461 7.6172 c -1.2148 3.4609 -1.0195 6.832 0.57812 10.129 c 1.6133 3.293 4.1562 5.5508 7.6172 6.75 c 3.4414 1.207 6.8125 1.0195 10.125 -0.58594 c 23.906 -11.637 39.879 -27.023 47.91 -46.176 h -0.09375 c 8.1016 -18.504 11.699 -33.961 10.797 -46.375 v -0.1875 c -0.19922 -4.2812 -0.33594 -7.9766 -0.39062 -11.09 c 99.176 -23.719 155.29 -36.156 168.32 -37.316 v -0.097656 c 11.062 -0.96875 19.707 0.019531 25.934 2.9883 h 0.10547 c 4.9648 2.6641 8.4688 6.707 10.504 12.152 c 0.039063 0.09375 0.070313 0.1875 0.10547 0.28125 c 1.7188 5.3867 1.4258 10.66 -0.87109 15.812 c -0.03125 0.070313 -0.070313 0.13672 -0.097657 0.19922 c -2.2969 4.7305 -5.8906 8 -10.797 9.8359 l 0.097656 -0.10547 c -7.9688 2.8867 -16.012 5.5234 -24.105 7.9102 c -0.24219 0.0625 -0.49609 0.12891 -0.76562 0.19141 c -1.2617 0.44141 -4.7734 1.5 -10.508 3.1875 c -0.29297 0.042969 -0.58594 0.11328 -0.87109 0.19141 c -27.82 8.1133 -64.934 15.668 -111.35 22.656 c -3.6445 0.53516 -6.5703 2.2656 -8.7656 5.2031 c -2.1797 2.9805 -2.9805 6.2891 -2.4141 9.9375 c 0.52734 3.6094 2.2656 6.5039 5.207 8.6875 c 2.957 2.1602 6.2344 2.9688 9.832 2.4062 c 47.723 -7.1172 85.934 -14.832 114.62 -23.141 c 30.148 -4.8984 52.539 -6.1211 67.195 -3.6641 h 0.19922 c 10.57 1.6914 17.676 6.1992 21.305 13.496 v 0.09375 c 3.168 7.3125 3.0664 14.094 -0.29297 20.352 l 0.097656 -0.10547 c -4.043 6.9609 -9.8633 11.883 -17.453 14.754 c -9.707 3.0742 -70.379 7.2539 -182.01 12.539 c -0.16016 -0.011718 -0.32422 -0.011718 -0.48047 0 c -3.5859 0.14844 -6.6094 1.5625 -9.0664 4.2422 c -2.4844 2.6875 -3.6758 5.8359 -3.5664 9.4531 c 0.12891 3.6328 1.5039 6.7188 4.1445 9.2539 c 2.625 2.5 5.7422 3.7266 9.3516 3.6602 h 0.48438 c 89.723 -1.4141 136.96 -2.2383 141.72 -2.5 h 0.1875 c 5.7109 -0.40625 10.727 1.1953 15.039 4.8164 l 0.097656 0.09375 c 4.3477 3.8281 6.7266 8.5938 7.1289 14.281 c 0.39062 5.6797 -1.3125 10.66 -5.1094 14.941 c -3.7969 4.2734 -8.5859 6.6445 -14.359 7.1289 c -9.0352 0.64062 -18.062 1.0781 -27.09 1.3516 c -6.3945 0.11719 -12.992 0.17969 -19.762 0.1875 c -0.63281 -0.054688 -1.2773 -0.054688 -1.9297 0 c -32.66 -0.042969 -70.156 -2.3203 -112.51 -6.8438 c -3.6328 -0.38672 -6.875 0.57812 -9.7383 2.8945 c -2.8672 2.2891 -4.5117 5.2578 -4.9141 8.8672 c -0.38672 3.6406 0.57812 6.875 2.8945 9.7305 c 2.2891 2.8672 5.25 4.5156 8.8711 4.9219 c 41.52 4.4414 78.512 6.7812 110.96 7.0391 c 0.054688 0.09375 0.125 0.1875 0.19141 0.29297 c 2.8203 4.0391 3.7812 8.6719 2.8945 13.875 v 0.10547 c -0.91016 5.5195 -3.6016 10.074 -8.1016 13.676 c -4.2109 3.3867 -8.8711 4.9023 -13.977 4.543 c -41.891 -4.0664 -82.547 -12.691 -121.95 -25.875 z" stroke-linecap="round" />
</g>
</svg>