<?xml version="1.0" encoding="UTF-8" standalone="no" ?>
<!DOCTYPE svg PUBLIC "-//W3C//DTD SVG 1.1//EN" "http://www.w3.org/Graphics/SVG/1.1/DTD/svg11.dtd">
<svg xmlns="http://www.w3.org/2000/svg" xmlns:xlink="http://www.w3.org/1999/xlink" version="1.1" width="640" height="480" viewBox="0 0 640 480" xml:space="preserve">
<desc>Created with Fabric.js 3.6.6</desc>
<defs>
</defs>
<g transform="matrix(1.13 0 0 1.13 314.51 242.99)"  >
<path style="stroke: none; stroke-width: 1; stroke-dasharray: none; stroke-linecap: butt; stroke-dashoffset: 0; stroke-linejoin: miter; stroke-miterlimit: 4; fill: rgb(255,255,255); fill-rule: nonzero; opacity: 1;"  transform=" translate(-353.78, -277.81)" d="m 428.49 468.32 c 12.465 -10.789 18.617 -23.742 18.461 -38.844 v -1.1953 c 15.773 -2.1602 30.277 -7.9883 43.531 -17.504 l 0.125 -0.125 c 20.227 -14.957 30.141 -32.984 29.73 -54.07 c -0.019532 -5.0469 -0.57422 -9.9688 -1.6797 -14.754 c 1.8398 -1.1953 3.8008 -2.4766 5.8672 -3.8281 c 0.24219 -0.21875 0.48438 -0.41016 0.72266 -0.60547 c 13.352 -9.3398 20.035 -24.285 20.023 -44.852 c 0.47266 -11.469 -3.5586 -23.141 -12.102 -35.008 c 4.0742 -2.3516 7.9883 -4.9453 11.746 -7.7891 c 1.9492 -1.3672 4.1875 -3.1289 6.7148 -5.2773 c 0.92188 -0.79688 1.7617 -1.6797 2.5195 -2.6445 c 0.17578 -0.23828 0.37891 -0.51562 0.60547 -0.83984 c 19.836 -18.148 29.551 -36.188 29.133 -54.066 c 1.0391 -18.512 -8.5117 -36.457 -28.652 -53.848 l -0.125 -0.11328 c -32.965 -29.52 -74.809 -35.355 -125.54 -17.504 c -1.125 -1.2266 -2.2852 -2.4648 -3.4766 -3.7227 v 0.125 c -25.797 -26.91 -54.176 -40.227 -85.133 -39.934 c -21.859 -0.58984 -46.723 10.434 -74.578 33.098 l -0.125 0.125 c -16.508 12.75 -30.332 32.484 -41.484 59.23 c -6.7266 -3.5898 -13.477 -5.2266 -20.266 -4.9141 c -24.797 -0.97656 -44.621 13.684 -59.477 44.012 l 0.125 -0.125 c -10.445 20.812 -17.242 43.719 -20.379 68.707 v 0.11328 c -3.0352 25.406 -0.24219 50.984 8.3945 76.738 l 0.125 0.125 c 8.9844 28.062 30.613 43.598 64.867 46.641 c 3.5039 6.875 8.0625 14.074 13.672 21.586 l 0.11719 0.125 c 19.301 27.535 51.75 37.488 97.359 29.855 c 3.3398 3.8008 7.1797 7.6406 11.516 11.516 v 0.125 c 19.035 17.074 38.812 25.344 59.355 24.82 h 0.23828 c 21.023 -0.41016 36.973 -5.4492 47.844 -15.113 c 0.050781 -0.11719 0.13672 -0.19141 0.22266 -0.26562 z m -44.004 -128.54 c 0.23828 0.13672 0.47266 0.29688 0.71484 0.48047 c 1.6055 0.95312 3.2031 1.9219 4.7969 2.875 c 11.945 7.1914 24.535 12.27 37.762 15.227 c 9.6445 2.1719 19.555 3.2461 29.734 3.2344 c 10.355 -0.007812 20.266 -1.4062 29.734 -4.1953 c -0.68359 10.172 -6.0859 19.008 -16.191 26.5 l -0.125 0.125 c -11.316 8.082 -24.023 12.121 -38.129 12.109 c -16.727 -0.007813 -32.316 -4.4102 -46.766 -13.184 l 0.125 0.11328 c -14.691 -9.1406 -22.246 -20.926 -22.66 -35.375 c -0.007813 -5.793 1.8281 -10.105 5.5117 -12.941 h 0.24219 c 1.6133 -1.0312 3.4102 -1.8398 5.3945 -2.4023 c 3.0117 2.5586 6.2969 5.0391 9.8555 7.4336 z m 46.039 -70.738 c 0.66406 0.19922 1.3086 0.35547 1.9219 0.48047 c 1.7539 0.31641 3.5156 0.63281 5.2773 0.95312 l -0.83984 -0.23828 c 13.09 3.1172 26.289 4.2383 39.566 3.3555 h 0.11719 c 7.9531 -0.46094 15.91 -1.6133 23.867 -3.4766 c 7.2539 7.8203 11.168 15.293 11.754 22.418 c -0.011718 7.8164 -2.0469 13.762 -6.1172 17.871 l -0.36719 0.35938 c -0.125 0.074219 -0.23828 0.15625 -0.35938 0.24219 c -2.2227 1.4297 -4.3008 2.8359 -6.2344 4.1992 h -0.11719 c -2.1953 1.5547 -4.2383 2.9609 -6.1172 4.1953 c -0.19141 0.097656 -0.39062 0.21875 -0.59766 0.35938 c -0.94141 0.36719 -1.8594 0.84766 -2.7578 1.4375 c -0.64844 0.19922 -1.2891 0.42969 -1.9219 0.71484 c -9.3203 4.4102 -19.352 6.6133 -30.098 6.5938 c -7.7148 -0.011718 -15.23 -0.85156 -22.543 -2.5078 c -9.7812 -2.1641 -19.098 -5.8789 -27.938 -11.156 c -1.5938 -0.95703 -3.1914 -1.9219 -4.7969 -2.8828 c -4.2578 -2.9805 -7.8516 -6.1797 -10.789 -9.5898 v 0.125 c -5.9844 -7.125 -8.9805 -15.23 -8.9922 -24.348 c 0.007813 -6.1523 2.0859 -10.707 6.2422 -13.664 v -0.125 c 5.3516 -2.9727 12.312 -4.4492 20.863 -4.4297 c 6.0195 3.6055 13.012 6.6367 20.977 9.1133 z m 102.89 -111.03 l 0.11719 0.125 c 10.969 9.4453 16.727 18.879 17.266 28.285 c -0.89062 9.8633 -7.2422 20.129 -19.066 30.82 c -0.54297 0.52344 -1.0586 1.0898 -1.5547 1.6797 c -0.42188 0.51562 -0.82812 0.99609 -1.1953 1.4453 c -1.0938 0.88281 -2.0898 1.6367 -2.9922 2.2773 c -0.19922 0.16797 -0.39844 0.32812 -0.60547 0.48047 c -6.2422 4.7969 -13.152 8.6367 -20.746 11.516 c -2.5078 0.72656 -5.0664 1.4492 -7.6719 2.1523 c -7.4727 2.0703 -14.945 3.3047 -22.426 3.7227 h -0.11719 c -10.023 0.71094 -19.98 -0.09375 -29.859 -2.4023 c -0.28125 -0.082031 -0.56641 -0.15625 -0.83984 -0.23828 c -1.4453 -0.26562 -2.8867 -0.54297 -4.3164 -0.83984 c -1.4297 -0.46094 -2.8359 -0.93359 -4.1953 -1.4453 c 5.5117 -3.0352 10.305 -7.2305 14.387 -12.586 c 0.070313 -0.125 0.14453 -0.24219 0.25 -0.35547 c 5.3125 -7.082 8.7539 -15.598 10.305 -25.535 c 3.293 1.3672 8.0898 3.4453 14.391 6.2266 c 4.2188 1.8711 8.4492 1.9922 12.711 0.36719 c 4.2305 -1.6602 7.2656 -4.5742 9.1094 -8.7617 c 1.8789 -4.207 1.9961 -8.4375 0.36719 -12.711 c -1.668 -4.2266 -4.5781 -7.2617 -8.7539 -9.1016 c -14.617 -6.4883 -23.453 -9.9297 -26.5 -10.316 c -0.51562 -0.0625 -1.0391 -0.097656 -1.5547 -0.125 c -0.62109 -0.054687 -1.2188 -0.09375 -1.7969 -0.125 c -0.085938 -0.28516 -0.16016 -0.57422 -0.24219 -0.83203 c -0.039062 -0.1875 -0.082031 -0.38672 -0.125 -0.59766 c -1.7656 -5.7109 -4.2891 -11.469 -7.5547 -17.273 c 33.133 -9.2344 60.867 -4.5234 83.211 14.148 z m -294.96 239.56 l -0.125 -0.125 c -12.531 -16.91 -16.844 -30.496 -12.953 -40.77 c 2.1484 -4.043 2.5508 -8.2461 1.1992 -12.586 c -1.332 -4.375 -4.0078 -7.6484 -8.0312 -9.8242 c -4.0312 -2.1484 -8.2305 -2.543 -12.586 -1.1953 c -4.3672 1.3359 -7.6484 4.0195 -9.832 8.0273 c -3.7227 5.9844 -5.8789 12.457 -6.4727 19.426 c -12.34 -3.6641 -20.734 -11.09 -25.18 -22.309 l 0.11719 0.125 c -7.0195 -20.883 -9.332 -41.621 -6.957 -62.223 v -0.125 c 2.6328 -21.012 8.3125 -40.277 17.031 -57.797 l 0.11719 -0.11328 c 7.8633 -16.07 17.77 -24.59 29.734 -25.543 c 2.9258 0.39062 5.918 1.75 8.9922 4.0742 c -2.4258 8.4141 -4.668 17.277 -6.7148 26.617 c -0.95703 4.4492 -0.19922 8.6133 2.2773 12.469 c 2.4531 3.8828 5.8867 6.3164 10.309 7.3164 c 4.457 0.96484 8.6133 0.20703 12.469 -2.2773 c 3.8711 -2.457 6.3086 -5.8789 7.3125 -10.316 c 10.602 -48.426 26.551 -81.598 47.844 -99.52 l 0.125 -0.125 c 20.371 -16.59 38.324 -25.188 53.836 -25.777 c 22.125 0.33594 42.504 10.246 61.152 29.742 c 3.2734 3.3984 6.2422 6.8008 8.8711 10.191 c 0.082031 0.11328 0.15625 0.23828 0.23828 0.35547 c 0.33594 0.46484 0.69141 0.91016 1.082 1.3203 c 6.5781 8.3828 11.168 16.582 13.789 24.578 l -0.125 -0.59766 c 0.78516 2.7695 1.3867 5.5234 1.7969 8.2695 c -0.011719 0.21875 -0.011719 0.41016 0 0.60547 c 0.13672 1.5 0.22266 3.0547 0.24219 4.6719 c -0.007812 7.6914 -1.6875 14.051 -5.0391 19.059 l 0.23828 -0.23828 c -2.8867 3.7969 -6.9609 5.5938 -12.227 5.3945 c -2.4062 0.03125 -4.7305 -0.25391 -6.957 -0.83984 l -0.35938 -0.125 h -0.125 c -4.9414 -1.6797 -9.5742 -4.7227 -13.906 -9.1016 h -0.11719 c -10.652 -10.547 -18.406 -18.105 -23.266 -22.672 c -0.67188 -1.5742 -1.6367 -3.043 -2.875 -4.4297 c -2.8359 -3.1484 -6.3516 -4.9453 -10.555 -5.3945 c -4.2188 -0.46484 -8.0508 0.52344 -11.512 3 c -3.4297 2.5078 -5.5859 5.832 -6.4766 9.9492 c -1.7305 5.9102 -0.80859 13.938 2.7578 24.105 l 0.125 0.24219 c 1.7617 4.8047 2.7578 8.3203 3 10.547 c -0.31641 10.305 -4.543 20.977 -12.711 32.02 l -0.125 0.11328 c -7.6953 10.105 -15.656 15.992 -23.863 17.629 c -4.5 0.60547 -8.1328 2.7266 -10.914 6.3516 c -2.8047 3.6328 -3.9336 7.7109 -3.3555 12.234 c 0.60547 4.5 2.7188 8.1328 6.3516 10.914 c 3.6328 2.8008 7.7109 3.9258 12.238 3.3555 c 14.586 -1.3672 28.367 -9.6367 41.367 -24.812 c -0.24219 2.1641 -0.36719 4.3984 -0.36719 6.707 c 0 9.5078 1.7109 18.418 5.1602 26.742 c -1.1836 0.67188 -2.3398 1.3984 -3.4844 2.1602 c -13.746 8.3672 -20.613 21.91 -20.621 40.645 c -0.023437 1.8281 0.011719 3.6289 0.125 5.3945 c -10.523 1.4258 -19.477 6.7773 -26.855 16.07 l -0.11719 0.11719 c -7.832 9.4258 -11.746 21.328 -11.754 35.734 c -0.054687 3.5977 0.30469 7.1914 1.0781 10.789 c -24.52 1.9219 -42.672 -4.1562 -54.418 -18.227 z m 141.24 53 c -12.633 -0.27344 -24.902 -5.7539 -36.816 -16.434 v 0.125 c -5.2656 -4.8047 -9.457 -9.5273 -12.586 -14.145 l -0.23828 -0.36719 c -0.20703 -0.30469 -0.40625 -0.58594 -0.60547 -0.83984 c -2.8945 -4.6719 -4.4102 -9.3086 -4.5547 -13.906 c -0.007813 -5.9922 1.4688 -11 4.4414 -14.984 l 0.11719 -0.125 c 2.0156 -2.5586 4.5 -3.9219 7.4375 -4.0742 c 0.74609 -0.011719 1.3516 -0.011719 1.7969 0 c 0.26562 0.10547 0.54688 0.22266 0.83984 0.35547 c 0.94141 0.48047 1.9023 0.87891 2.8828 1.1992 c 6.2656 8.8398 15.02 16.758 26.258 23.742 l 0.125 0.11328 c 13.844 8.4062 28.473 13.883 43.887 16.434 c 0.37891 0.56641 0.82031 1.1211 1.3203 1.6797 l -0.11719 0.125 c -0.15625 5.2578 -2.3945 9.8047 -6.7188 13.664 c -6.3477 4.6992 -15.418 7.1758 -27.215 7.4414 l -0.25391 0.003906 z" stroke-linecap="round" />
</g>
</svg>